<svg width="128" height="32" viewBox="0 0 128 32" fill="none" xmlns="http://www.w3.org/2000/svg">
<g clip-path="url(#clip0_2_49)">
<rect width="31.5011" height="31.5011" rx="2.10007" fill="#1B4332"/>
<path d="M7.90552 17.3256L-6.19525 31.4959H20.7907L7.90552 17.3256Z" fill="#1B4332"/>
<path d="M7.24431 21.0809L-1.92339 30.2937C-2.36578 30.7383 -2.05089 31.4959 -1.42372 31.4959H16.1214C16.7334 31.4959 17.0546 30.7695 16.6429 30.3167L8.26552 21.1038C7.99431 20.8056 7.52866 20.7951 7.24431 21.0809Z" fill="#40916C"/>
<path d="M24.6505 14.4982L8.67342 31.927C8.05172 32.6052 8.53282 33.6988 9.45285 33.6988H40.0296C40.9273 33.6988 41.4166 32.6507 40.8402 31.9625L26.2404 14.5337C25.8301 14.0439 25.0823 14.0271 24.6505 14.4982Z" fill="#95D5B2"/>
<circle cx="15.8385" cy="12.6004" r="3.15011" fill="#D8F3DC"/>
</g>
<path d="M52.6362 8.23779V11.1187H46.622V14.231H51.1222V17.0278H46.622V23H43.0261V8.23779H52.6362ZM56.3347 10.0463C55.7038 10.0463 55.1851 9.86401 54.7785 9.49951C54.386 9.12099 54.1897 8.65836 54.1897 8.11161C54.1897 7.55084 54.386 7.08821 54.7785 6.72371C55.1851 6.34519 55.7038 6.15593 56.3347 6.15593C56.9515 6.15593 57.4562 6.34519 57.8487 6.72371C58.2553 7.08821 58.4586 7.55084 58.4586 8.11161C58.4586 8.65836 58.2553 9.12099 57.8487 9.49951C57.4562 9.86401 56.9515 10.0463 56.3347 10.0463ZM58.1221 11.2659V23H54.5262V11.2659H58.1221ZM65.1862 11.0977C66.0133 11.0977 66.7353 11.2659 67.3521 11.6024C67.983 11.9389 68.4666 12.3805 68.8031 12.9272V11.2659H72.399V22.979C72.399 24.0584 72.1817 25.0328 71.7471 25.902C71.3266 26.7852 70.6747 27.4861 69.7915 28.0049C68.9223 28.5236 67.8358 28.7829 66.532 28.7829C64.7936 28.7829 63.3847 28.3694 62.3052 27.5422C61.2257 26.7291 60.6089 25.6216 60.4547 24.2197H64.0085C64.1207 24.6683 64.3871 25.0188 64.8076 25.2711C65.2282 25.5375 65.7469 25.6707 66.3638 25.6707C67.1068 25.6707 67.6956 25.4534 68.1302 25.0188C68.5788 24.5982 68.8031 23.9183 68.8031 22.979V21.3177C68.4526 21.8644 67.969 22.3131 67.3521 22.6635C66.7353 23 66.0133 23.1682 65.1862 23.1682C64.2188 23.1682 63.3426 22.9229 62.5576 22.4322C61.7725 21.9275 61.1486 21.2196 60.686 20.3083C60.2374 19.383 60.0131 18.3176 60.0131 17.1119C60.0131 15.9063 60.2374 14.8478 60.686 13.9366C61.1486 13.0253 61.7725 12.3244 62.5576 11.8337C63.3426 11.343 64.2188 11.0977 65.1862 11.0977ZM68.8031 17.133C68.8031 16.2357 68.5508 15.5278 68.0461 15.0091C67.5554 14.4903 66.9526 14.231 66.2376 14.231C65.5226 14.231 64.9128 14.4903 64.4081 15.0091C63.9174 15.5137 63.6721 16.2147 63.6721 17.1119C63.6721 18.0092 63.9174 18.7241 64.4081 19.2569C64.9128 19.7756 65.5226 20.0349 66.2376 20.0349C66.9526 20.0349 67.5554 19.7756 68.0461 19.2569C68.5508 18.7382 68.8031 18.0302 68.8031 17.133ZM78.5964 12.9272C78.9469 12.3805 79.4306 11.9389 80.0474 11.6024C80.6643 11.2659 81.3863 11.0977 82.2134 11.0977C83.1807 11.0977 84.0569 11.343 84.842 11.8337C85.6271 12.3244 86.2439 13.0253 86.6925 13.9366C87.1552 14.8478 87.3865 15.9063 87.3865 17.1119C87.3865 18.3176 87.1552 19.383 86.6925 20.3083C86.2439 21.2196 85.6271 21.9275 84.842 22.4322C84.0569 22.9229 83.1807 23.1682 82.2134 23.1682C81.4003 23.1682 80.6783 23 80.0474 22.6635C79.4306 22.3271 78.9469 21.8925 78.5964 21.3598V28.5937H75.0005V11.2659H78.5964V12.9272ZM83.7275 17.1119C83.7275 16.2147 83.4751 15.5137 82.9704 15.0091C82.4798 14.4903 81.8699 14.231 81.1409 14.231C80.426 14.231 79.8161 14.4903 79.3114 15.0091C78.8208 15.5278 78.5754 16.2357 78.5754 17.133C78.5754 18.0302 78.8208 18.7382 79.3114 19.2569C79.8161 19.7756 80.426 20.0349 81.1409 20.0349C81.8559 20.0349 82.4657 19.7756 82.9704 19.2569C83.4751 18.7241 83.7275 18.0092 83.7275 17.1119ZM100.334 16.9437C100.334 17.2802 100.313 17.6306 100.271 17.9951H92.1329C92.189 18.7241 92.4203 19.2849 92.8269 19.6775C93.2474 20.056 93.7591 20.2452 94.362 20.2452C95.2592 20.2452 95.883 19.8667 96.2335 19.1097H100.061C99.8645 19.8807 99.507 20.5747 98.9883 21.1915C98.4836 21.8084 97.8457 22.292 97.0747 22.6425C96.3036 22.993 95.4414 23.1682 94.4881 23.1682C93.3386 23.1682 92.3152 22.9229 91.4179 22.4322C90.5207 21.9416 89.8197 21.2406 89.3151 20.3293C88.8104 19.4181 88.558 18.3526 88.558 17.133C88.558 15.9133 88.8034 14.8478 89.294 13.9366C89.7987 13.0253 90.4997 12.3244 91.3969 11.8337C92.2941 11.343 93.3245 11.0977 94.4881 11.0977C95.6237 11.0977 96.6331 11.336 97.5163 11.8127C98.3995 12.2893 99.0864 12.9693 99.5771 13.8525C100.082 14.7357 100.334 15.7661 100.334 16.9437ZM96.6541 15.9974C96.6541 15.3806 96.4438 14.8899 96.0232 14.5254C95.6027 14.1609 95.0769 13.9786 94.4461 13.9786C93.8433 13.9786 93.3316 14.1539 92.911 14.5044C92.5044 14.8548 92.2521 15.3525 92.1539 15.9974H96.6541ZM113.292 16.9437C113.292 17.2802 113.271 17.6306 113.229 17.9951H105.091C105.147 18.7241 105.378 19.2849 105.785 19.6775C106.206 20.056 106.717 20.2452 107.32 20.2452C108.217 20.2452 108.841 19.8667 109.192 19.1097H113.019C112.823 19.8807 112.465 20.5747 111.946 21.1915C111.442 21.8084 110.804 22.292 110.033 22.6425C109.262 22.993 108.4 23.1682 107.446 23.1682C106.297 23.1682 105.273 22.9229 104.376 22.4322C103.479 21.9416 102.778 21.2406 102.273 20.3293C101.769 19.4181 101.516 18.3526 101.516 17.133C101.516 15.9133 101.762 14.8478 102.252 13.9366C102.757 13.0253 103.458 12.3244 104.355 11.8337C105.252 11.343 106.283 11.0977 107.446 11.0977C108.582 11.0977 109.591 11.336 110.474 11.8127C111.358 12.2893 112.045 12.9693 112.535 13.8525C113.04 14.7357 113.292 15.7661 113.292 16.9437ZM109.612 15.9974C109.612 15.3806 109.402 14.8899 108.981 14.5254C108.561 14.1609 108.035 13.9786 107.404 13.9786C106.801 13.9786 106.29 14.1539 105.869 14.5044C105.463 14.8548 105.21 15.3525 105.112 15.9974H109.612ZM122.36 23L118.785 18.0793V23H115.189V7.43869H118.785V16.0395L122.339 11.2659H126.776L121.898 17.154L126.818 23H122.36Z" fill="#1B4332"/>
<defs>
<clipPath id="clip0_2_49">
<rect width="31.5011" height="31.5011" rx="2.10007" fill="white"/>
</clipPath>
</defs>
</svg>
